<?xml version="1.0" encoding="UTF-8" standalone="no"?>
<svg
   height="16"
   viewBox="0 0 15.003 16"
   width="15.003"
   version="1.1"
   id="svg2"
   sodipodi:docname="add_bookshelf_icon.svg"
   inkscape:version="1.3.2 (091e20e, 2023-11-25)"
   xmlns:inkscape="http://www.inkscape.org/namespaces/inkscape"
   xmlns:sodipodi="http://sodipodi.sourceforge.net/DTD/sodipodi-0.dtd"
   xmlns="http://www.w3.org/2000/svg"
   xmlns:svg="http://www.w3.org/2000/svg">
  <defs
     id="defs2" />
  <sodipodi:namedview
     id="namedview2"
     pagecolor="#ffffff"
     bordercolor="#000000"
     borderopacity="0.25"
     inkscape:showpageshadow="2"
     inkscape:pageopacity="0.0"
     inkscape:pagecheckerboard="0"
     inkscape:deskcolor="#d1d1d1"
     inkscape:zoom="14.75"
     inkscape:cx="7.4915254"
     inkscape:cy="8"
     inkscape:window-width="1312"
     inkscape:window-height="449"
     inkscape:window-x="0"
     inkscape:window-y="38"
     inkscape:window-maximized="0"
     inkscape:current-layer="svg2" />
  <path
     d="m7 16h-5.5a.5.5 0 0 1 -.5-.5v-.5h-.5a.5.5 0 1 1 0-1h.5v-3h-.5a.5.5 0 1 1 0-1h.5v-3h-.5a.5.5 0 1 1 0-1h.5v-2.955h-.5a.5.5 0 1 1 0-1h.5v-1.545a.5.5 0 0 1 .5-.5h10a3.5 3.5 0 0 1 3.5 3.5v4.5h-1v-4.5a2.5 2.5 0 0 0 -2.5-2.5h-9.5v1.045h.545a.5.5 0 0 1 0 1h-.545v2.955h.5a.5.5 0 0 1 0 1h-.5v3h.5a.5.5 0 0 1 0 1h-.5v3h.5a.5.5 0 0 1 0 1h4.5z"
     id="path1"
     style="fill:#2fcc25;fill-opacity:1" />
  <path
     d="m38 12.5a.5.5 0 0 1 -.5.5h-2.5v2.5a.5.5 0 0 1 -1 0v-2.5h-2.5a.5.5 0 0 1 0-1h2.5v-2.5a.5.5 0 0 1 1 0v2.5h2.5a.5.5 0 0 1 .5.5z"
     transform="translate(-23)"
     id="path2"
     style="fill:#2fcc25;fill-opacity:1" />
</svg>
