<?xml version="1.0" encoding="UTF-8" standalone="no"?>
<svg
   enable-background="new 0 0 1792 1792"
   viewBox="0 0 1365.4 1027.4531"
   version="1.1"
   id="svg1"
   sodipodi:docname="blue_checkmark_icon.svg"
   width="1365.4"
   height="1027.4531"
   inkscape:version="1.3.2 (091e20e, 2023-11-25)"
   xmlns:inkscape="http://www.inkscape.org/namespaces/inkscape"
   xmlns:sodipodi="http://sodipodi.sourceforge.net/DTD/sodipodi-0.dtd"
   xmlns="http://www.w3.org/2000/svg"
   xmlns:svg="http://www.w3.org/2000/svg">
  <defs
     id="defs1" />
  <sodipodi:namedview
     id="namedview1"
     pagecolor="#ffffff"
     bordercolor="#000000"
     borderopacity="0.25"
     inkscape:showpageshadow="2"
     inkscape:pageopacity="0.0"
     inkscape:pagecheckerboard="0"
     inkscape:deskcolor="#d1d1d1"
     showguides="true"
     inkscape:zoom="0.13169643"
     inkscape:cx="117.69492"
     inkscape:cy="577.08475"
     inkscape:window-width="1312"
     inkscape:window-height="449"
     inkscape:window-x="0"
     inkscape:window-y="37"
     inkscape:window-maximized="0"
     inkscape:current-layer="svg1" />
  <path
     d="m 1323.1,42.3 c -56.8,-56.4 -148.3,-56.4 -204.7,0 L 484.5,676.9 247,439.6 c -56.8,-56.4 -148.3,-56.4 -204.7,0 -56.4,56.8 -56.4,148.3 0,204.7 l 326.1,325.8 c 3.9,5.1 8.2,10.1 12.9,14.8 34.6,34.6 82.3,48.1 126.9,40.5 29.2,-4.6 57.3,-18.1 79.7,-40.5 4.7,-4.7 9,-9.7 12.9,-14.9 l 722.3,-723 c 56.4,-56.8 56.4,-148.3 0,-204.7 z"
     id="path1"
     style="fill:#38b6ff;fill-opacity:1" />
</svg>
