<?xml version="1.0" encoding="UTF-8" standalone="no"?>
<svg
   height="16.655001"
   viewBox="0 0 18.400146 16.655001"
   width="18.400146"
   version="1.1"
   id="svg2"
   sodipodi:docname="blue_home_icon.svg"
   inkscape:version="1.3.2 (091e20e, 2023-11-25)"
   xmlns:inkscape="http://www.inkscape.org/namespaces/inkscape"
   xmlns:sodipodi="http://sodipodi.sourceforge.net/DTD/sodipodi-0.dtd"
   xmlns="http://www.w3.org/2000/svg"
   xmlns:svg="http://www.w3.org/2000/svg">
  <defs
     id="defs2" />
  <sodipodi:namedview
     id="namedview2"
     pagecolor="#ffffff"
     bordercolor="#000000"
     borderopacity="0.25"
     inkscape:showpageshadow="2"
     inkscape:pageopacity="0.0"
     inkscape:pagecheckerboard="0"
     inkscape:deskcolor="#d1d1d1"
     inkscape:zoom="9.8333333"
     inkscape:cx="9.1016949"
     inkscape:cy="8.6440678"
     inkscape:window-width="1312"
     inkscape:window-height="449"
     inkscape:window-x="0"
     inkscape:window-y="37"
     inkscape:window-maximized="0"
     inkscape:current-layer="svg2" />
  <path
     d="m -2.802148,-3.345 h 24 v 24 h -24 z"
     fill="none"
     id="path1" />
  <path
     d="m 7.197852,15.655 v -5 h 4 v 5 c 0,0.55 0.45,1 1,1 h 3 c 0.55,0 1,-0.45 1,-1 v -7 h 1.7 c 0.46,0 0.68,-0.57 0.33,-0.87 l -8.36,-7.53 c -0.38,-0.34 -0.96,-0.34 -1.34,0 l -8.36000003,7.53 c -0.34,0.3 -0.13,0.87 0.33,0.87 H 2.197852 v 7 c 0,0.55 0.45,1 1,1 h 3 c 0.55,0 1,-0.45 1,-1 z"
     id="path2"
     style="fill:#38b6ff;fill-opacity:1" />
</svg>
