<?xml version="1.0" encoding="UTF-8" standalone="no"?>
<svg
   width="14"
   height="19"
   fill="none"
   version="1.1"
   id="svg1"
   sodipodi:docname="grey_lock_icon.svg"
   inkscape:version="1.3.2 (091e20e, 2023-11-25)"
   xmlns:inkscape="http://www.inkscape.org/namespaces/inkscape"
   xmlns:sodipodi="http://sodipodi.sourceforge.net/DTD/sodipodi-0.dtd"
   xmlns="http://www.w3.org/2000/svg"
   xmlns:svg="http://www.w3.org/2000/svg">
  <defs
     id="defs1" />
  <sodipodi:namedview
     id="namedview1"
     pagecolor="#ffffff"
     bordercolor="#000000"
     borderopacity="0.25"
     inkscape:showpageshadow="2"
     inkscape:pageopacity="0.0"
     inkscape:pagecheckerboard="0"
     inkscape:deskcolor="#d1d1d1"
     inkscape:zoom="10.132078"
     inkscape:cx="6.4646169"
     inkscape:cy="10.165733"
     inkscape:window-width="1312"
     inkscape:window-height="449"
     inkscape:window-x="0"
     inkscape:window-y="37"
     inkscape:window-maximized="0"
     inkscape:current-layer="svg1" />
  <path
     fill-rule="evenodd"
     clip-rule="evenodd"
     d="M 2,5 C 2,2.238 4.238,0 7,0 c 2.762,0 5,2.238 5,5 v 3 h 0.4 C 13.28,8 14,8.72 14,9.6 v 7 C 14,17.92 12.92,19 11.6,19 H 2.4 C 1.08,19 0,17.92 0,16.6 v -7 C 0,8.72 0.72,8 1.6,8 H 2 Z m 8,0 V 8 H 4 V 5 C 4,3.342 5.342,2 7,2 8.658,2 10,3.342 10,5 Z M 7,10.25 A 1.75,1.75 0 0 0 6.25,13.582 V 16 a 0.75,0.75 0 0 0 1.5,0 V 13.582 A 1.75,1.75 0 0 0 7,10.25 Z"
     fill="#000"
     id="path1"
     style="fill:#c7c7c7;fill-opacity:1" />
</svg>
