<?xml version="1.0" encoding="UTF-8" standalone="no"?>
<svg
   enable-background="new 0 0 100 100"
   height="79.985275"
   viewBox="0 0 83.28801 79.985275"
   width="83.28801"
   version="1.1"
   id="svg1"
   sodipodi:docname="half_star_icon.svg"
   inkscape:version="1.3.2 (091e20e, 2023-11-25)"
   xmlns:inkscape="http://www.inkscape.org/namespaces/inkscape"
   xmlns:sodipodi="http://sodipodi.sourceforge.net/DTD/sodipodi-0.dtd"
   xmlns="http://www.w3.org/2000/svg"
   xmlns:svg="http://www.w3.org/2000/svg">
  <defs
     id="defs1" />
  <sodipodi:namedview
     id="namedview1"
     pagecolor="#ffffff"
     bordercolor="#000000"
     borderopacity="0.25"
     inkscape:showpageshadow="2"
     inkscape:pageopacity="0.0"
     inkscape:pagecheckerboard="0"
     inkscape:deskcolor="#d1d1d1"
     inkscape:zoom="4.4586311"
     inkscape:cx="38.016152"
     inkscape:cy="39.810425"
     inkscape:window-width="1360"
     inkscape:window-height="626"
     inkscape:window-x="0"
     inkscape:window-y="53"
     inkscape:window-maximized="0"
     inkscape:current-layer="svg1" />
  <path
     d="m 83.176073,29.836 c -0.278,-0.804 -1.036,-1.343 -1.888,-1.343 h -28.162 l -9.597,-27.159 c -0.284,-0.799 -1.039,-1.334 -1.886,-1.334 -0.846,0 -1.602,0.534 -1.885,1.334 l -9.598,27.159 h -28.159 c -0.851,0 -1.60900003,0.539 -1.89100003,1.343 -0.278,0.804 -0.018,1.698 0.651,2.226 l 21.98600003,17.409 -9.84,27.846 c -0.281,0.795 -0.031,1.682 0.62,2.215 0.654,0.536 1.573,0.603 2.297,0.167 l 25.818,-15.488 25.818,15.488 c 0.317,0.191 0.677,0.285 1.032,0.285 0.447,0 0.898,-0.152 1.266,-0.452 0.651,-0.533 0.901,-1.42 0.62,-2.215 l -9.84,-27.846 21.992,-17.409 c 0.667,-0.528 0.927,-1.422 0.646,-2.226 z"
     id="path1"
     style="fill:#737373;fill-opacity:1" />
  <path
     id="path3"
     style="fill:#2fcc20;fill-opacity:1"
     d="M 41.642578 0 C 40.796579 0 40.040812 0.53398517 39.757812 1.3339844 L 30.160156 28.492188 L 2.0019531 28.492188 C 1.150954 28.492188 0.39137472 29.031938 0.109375 29.835938 C -0.16862472 30.639937 0.092719419 31.534501 0.76171875 32.0625 L 22.748047 49.470703 L 12.90625 77.316406 C 12.62525 78.111405 12.876344 78.998251 13.527344 79.53125 C 14.181343 80.067249 15.100219 80.135218 15.824219 79.699219 L 41.642578 64.210938 L 41.644531 64.210938 L 41.642578 0 z " />
</svg>
