<?xml version="1.0" encoding="UTF-8" standalone="no"?>
<svg
   height="28"
   viewBox="0 0 28 28"
   width="28"
   version="1.1"
   id="svg3"
   sodipodi:docname="profile_icon2.svg"
   inkscape:version="1.3.2 (091e20e, 2023-11-25)"
   xmlns:inkscape="http://www.inkscape.org/namespaces/inkscape"
   xmlns:sodipodi="http://sodipodi.sourceforge.net/DTD/sodipodi-0.dtd"
   xmlns="http://www.w3.org/2000/svg"
   xmlns:svg="http://www.w3.org/2000/svg">
  <defs
     id="defs3" />
  <sodipodi:namedview
     id="namedview3"
     pagecolor="#ffffff"
     bordercolor="#000000"
     borderopacity="0.25"
     inkscape:showpageshadow="2"
     inkscape:pageopacity="0.0"
     inkscape:pagecheckerboard="0"
     inkscape:deskcolor="#d1d1d1"
     inkscape:zoom="7.375"
     inkscape:cx="13.966102"
     inkscape:cy="13.966102"
     inkscape:window-width="1312"
     inkscape:window-height="449"
     inkscape:window-x="0"
     inkscape:window-y="37"
     inkscape:window-maximized="0"
     inkscape:current-layer="svg3" />
  <path
     d="m 14,6 a 5,5 0 1 0 5,5 5,5 0 0 0 -5,-5 z"
     id="path1"
     style="fill:#a5a2a2;fill-opacity:1" />
  <path
     d="M 14,0 A 14,14 0 1 0 28,14 14.0158,14.0158 0 0 0 14,0 Z m 7.9925,22.9258 A 5.0016,5.0016 0 0 0 17,18 h -6 a 5.0016,5.0016 0 0 0 -4.9925,4.9258 12,12 0 1 1 15.985,0 z"
     id="path2"
     style="fill:#a5a2a2;fill-opacity:1" />
  <path
     d="M -2,-2 H 30 V 30 H -2 Z"
     fill="none"
     id="path3" />
</svg>
