<?xml version="1.0" encoding="UTF-8" standalone="no"?>
<svg
   fill="none"
   height="20"
   viewBox="0 0 20 20"
   width="20"
   version="1.1"
   id="svg2"
   sodipodi:docname="profile_icon.svg"
   inkscape:version="1.3.2 (091e20e, 2023-11-25)"
   xmlns:inkscape="http://www.inkscape.org/namespaces/inkscape"
   xmlns:sodipodi="http://sodipodi.sourceforge.net/DTD/sodipodi-0.dtd"
   xmlns="http://www.w3.org/2000/svg"
   xmlns:svg="http://www.w3.org/2000/svg">
  <defs
     id="defs2" />
  <sodipodi:namedview
     id="namedview2"
     pagecolor="#c7c7c7"
     bordercolor="#000000"
     borderopacity="0.25"
     inkscape:showpageshadow="2"
     inkscape:pageopacity="0.0"
     inkscape:pagecheckerboard="0"
     inkscape:deskcolor="#d1d1d1"
     inkscape:zoom="9.8333333"
     inkscape:cx="9.9661017"
     inkscape:cy="9.9661017"
     inkscape:window-width="1312"
     inkscape:window-height="449"
     inkscape:window-x="0"
     inkscape:window-y="37"
     inkscape:window-maximized="0"
     inkscape:current-layer="svg2" />
  <g
     fill="#292d32"
     id="g2"
     style="fill:#a5a2a2;fill-opacity:1"
     transform="translate(-2,-2)">
    <path
       d="M 22,12 C 22,6.49 17.51,2 12,2 6.49,2 2,6.49 2,12 c 0,2.9 1.25,5.51 3.23,7.34 0,0.01 0,0.01 -0.01,0.02 0.1,0.1 0.22,0.18 0.32,0.27 0.06,0.05 0.11,0.1 0.17,0.14 0.18,0.15 0.38,0.29 0.57,0.43 0.07,0.05 0.13,0.09 0.2,0.14 0.19,0.13 0.39,0.25 0.6,0.36 0.07,0.04 0.15,0.09 0.22,0.13 0.2,0.11 0.41,0.21 0.63,0.3 0.08,0.04 0.16,0.08 0.24,0.11 0.22,0.09 0.44,0.17 0.66,0.24 0.08,0.03 0.16,0.06 0.24,0.08 0.24,0.07 0.48,0.13 0.72,0.19 0.07,0.02 0.14,0.04 0.22,0.05 0.28,0.06 0.56,0.1 0.85,0.13 0.04,0 0.08,0.01 0.12,0.02 0.34,0.03 0.68,0.05 1.02,0.05 0.34,0 0.68,-0.02 1.01,-0.05 0.04,0 0.08,-0.01 0.12,-0.02 0.29,-0.03 0.57,-0.07 0.85,-0.13 0.07,-0.01 0.14,-0.04 0.22,-0.05 0.24,-0.06 0.49,-0.11 0.72,-0.19 0.08,-0.03 0.16,-0.06 0.24,-0.08 0.22,-0.08 0.45,-0.15 0.66,-0.24 0.08,-0.03 0.16,-0.07 0.24,-0.11 0.21,-0.09 0.42,-0.19 0.63,-0.3 0.08,-0.04 0.15,-0.09 0.22,-0.13 0.2,-0.12 0.4,-0.23 0.6,-0.36 0.07,-0.04 0.13,-0.09 0.2,-0.14 0.2,-0.14 0.39,-0.28 0.57,-0.43 0.06,-0.05 0.11,-0.1 0.17,-0.14 0.11,-0.09 0.22,-0.18 0.32,-0.27 0,-0.01 0,-0.01 -0.01,-0.02 C 20.75,17.51 22,14.9 22,12 Z m -5.06,4.97 c -2.71,-1.82 -7.15,-1.82 -9.88,0 -0.44,0.29 -0.8,0.63 -1.1,1 C 4.44,16.43 3.5,14.32 3.5,12 3.5,7.31 7.31,3.5 12,3.5 c 4.69,0 8.5,3.81 8.5,8.5 0,2.32 -0.94,4.43 -2.46,5.97 -0.29,-0.37 -0.66,-0.71 -1.1,-1 z"
       id="path1"
       style="fill:#a5a2a2;fill-opacity:1" />
    <path
       d="m 12,6.92969 c -2.07,0 -3.75,1.68 -3.75,3.75001 0,2.03 1.59,3.68 3.7,3.74 h 0.09 0.07 0.02 c 2.02,-0.07 3.61,-1.71 3.62,-3.74 0,-2.07001 -1.68,-3.75001 -3.75,-3.75001 z"
       id="path2"
       style="fill:#a5a2a2;fill-opacity:1" />
  </g>
</svg>
