<?xml version="1.0" encoding="UTF-8" standalone="no"?>
<svg
   fill="none"
   height="17.999975"
   viewBox="0 0 17.999975 17.999975"
   width="17.999975"
   version="1.1"
   id="svg2"
   sodipodi:docname="search_icon.svg"
   inkscape:version="1.3.2 (091e20e, 2023-11-25)"
   xmlns:inkscape="http://www.inkscape.org/namespaces/inkscape"
   xmlns:sodipodi="http://sodipodi.sourceforge.net/DTD/sodipodi-0.dtd"
   xmlns="http://www.w3.org/2000/svg"
   xmlns:svg="http://www.w3.org/2000/svg">
  <defs
     id="defs2" />
  <sodipodi:namedview
     id="namedview2"
     pagecolor="#c7c7c7"
     bordercolor="#000000"
     borderopacity="0.25"
     inkscape:showpageshadow="2"
     inkscape:pageopacity="0.0"
     inkscape:pagecheckerboard="0"
     inkscape:deskcolor="#d1d1d1"
     inkscape:zoom="9.8333333"
     inkscape:cx="8.9491526"
     inkscape:cy="8.9491526"
     inkscape:window-width="1312"
     inkscape:window-height="449"
     inkscape:window-x="0"
     inkscape:window-y="37"
     inkscape:window-maximized="0"
     inkscape:current-layer="svg2"
     showguides="false" />
  <g
     clip-rule="evenodd"
     fill="#12131a"
     fill-rule="evenodd"
     id="g2"
     style="fill:#545454;fill-opacity:1"
     transform="translate(-3,-3)">
    <path
       d="m 13.7929,13.7929 c 0.3905,-0.3905 1.0237,-0.3905 1.4142,0 l 5.5,5.5 c 0.3905,0.3905 0.3905,1.0237 0,1.4142 -0.3905,0.3905 -1.0237,0.3905 -1.4142,0 l -5.5,-5.5 c -0.3905,-0.3905 -0.3905,-1.0237 0,-1.4142 z"
       id="path1"
       style="fill:#545454;fill-opacity:1" />
    <path
       d="m 10,5 c -2.76142,0 -5,2.23858 -5,5 0,2.7614 2.23858,5 5,5 2.7614,0 5,-2.2386 5,-5 0,-2.76142 -2.2386,-5 -5,-5 z m -7,5 c 0,-3.86599 3.13401,-7 7,-7 3.866,0 7,3.13401 7,7 0,3.866 -3.134,7 -7,7 -3.86599,0 -7,-3.134 -7,-7 z"
       id="path2"
       style="fill:#545454;fill-opacity:1" />
  </g>
</svg>
