<?xml version="1.0" encoding="UTF-8" standalone="no"?>
<svg
   height="460"
   viewBox="0 0 447.96112 460"
   width="447.96112"
   version="1.1"
   id="svg1"
   sodipodi:docname="settings_icon.svg"
   inkscape:version="1.3.2 (091e20e, 2023-11-25)"
   xmlns:inkscape="http://www.inkscape.org/namespaces/inkscape"
   xmlns:sodipodi="http://sodipodi.sourceforge.net/DTD/sodipodi-0.dtd"
   xmlns="http://www.w3.org/2000/svg"
   xmlns:svg="http://www.w3.org/2000/svg">
  <defs
     id="defs1" />
  <sodipodi:namedview
     id="namedview1"
     pagecolor="#ffffff"
     bordercolor="#000000"
     borderopacity="0.25"
     inkscape:showpageshadow="2"
     inkscape:pageopacity="0.0"
     inkscape:pagecheckerboard="0"
     inkscape:deskcolor="#d1d1d1"
     inkscape:zoom="0.4609375"
     inkscape:cx="190.91525"
     inkscape:cy="203.9322"
     inkscape:window-width="1312"
     inkscape:window-height="449"
     inkscape:window-x="0"
     inkscape:window-y="37"
     inkscape:window-maximized="0"
     inkscape:current-layer="svg1" />
  <path
     d="m 223.98056,150 a 80,80 0 1 0 80,80 80.24,80.24 0 0 0 -80,-80 z m 172.72,80 a 165.53,165.53 0 0 1 -1.64,22.34 l 48.69,38.12 a 11.59,11.59 0 0 1 2.63,14.78 l -46.06,79.52 a 11.64,11.64 0 0 1 -14.14,4.93 l -57.25,-23 a 176.56,176.56 0 0 1 -38.82,22.67 l -8.56,60.78 a 11.93,11.93 0 0 1 -11.51,9.86 h -92.12 a 12,12 0 0 1 -11.51,-9.53 l -8.56,-60.78 a 169.3,169.3 0 0 1 -38.82,-22.69 l -57.249996,23 a 11.64,11.64 0 0 1 -14.14,-4.92 L 1.5805645,305.57 a 11.59,11.59 0 0 1 2.63,-14.78 L 52.900564,252.67 a 174.58,174.58 0 0 1 -1.64,-22.67 165.53,165.53 0 0 1 1.64,-22.34 L 4.2105645,169.54 a 11.59,11.59 0 0 1 -2.63,-14.78 L 47.640564,75.24 a 11.64,11.64 0 0 1 14.14,-4.93 l 57.249996,23 a 176.56,176.56 0 0 1 38.82,-22.67 l 8.56,-60.78 a 11.93,11.93 0 0 1 11.51,-9.86 h 92.12 a 12,12 0 0 1 11.51,9.53 l 8.56,60.78 a 169.3,169.3 0 0 1 38.87,22.69 l 57.2,-23 a 11.64,11.64 0 0 1 14.14,4.92 l 46.06,79.52 a 11.59,11.59 0 0 1 -2.63,14.78 l -48.69,38.12 a 174.58,174.58 0 0 1 1.64,22.66 z"
     id="path1"
     style="fill:#c7c7c7;fill-opacity:1" />
</svg>
