<?xml version="1.0" encoding="UTF-8" standalone="no"?>
<svg
   height="32"
   preserveAspectRatio="xMidYMid"
   viewBox="0 0 32 32"
   width="32"
   version="1.1"
   id="svg3"
   sodipodi:docname="white_compass_icon.svg"
   inkscape:version="1.3.2 (091e20e, 2023-11-25)"
   xmlns:inkscape="http://www.inkscape.org/namespaces/inkscape"
   xmlns:sodipodi="http://sodipodi.sourceforge.net/DTD/sodipodi-0.dtd"
   xmlns="http://www.w3.org/2000/svg"
   xmlns:svg="http://www.w3.org/2000/svg">
  <defs
     id="defs3" />
  <sodipodi:namedview
     id="namedview3"
     pagecolor="#ffffff"
     bordercolor="#000000"
     borderopacity="0.25"
     inkscape:showpageshadow="2"
     inkscape:pageopacity="0.0"
     inkscape:pagecheckerboard="0"
     inkscape:deskcolor="#d1d1d1"
     inkscape:zoom="6.5555556"
     inkscape:cx="15.940678"
     inkscape:cy="16.016949"
     inkscape:window-width="1312"
     inkscape:window-height="449"
     inkscape:window-x="0"
     inkscape:window-y="37"
     inkscape:window-maximized="0"
     inkscape:current-layer="svg3" />
  <path
     d="M 13.18,13.31 23.54,7 C 24,6.74 24.65,7.37 24.4,7.84 L 18.25,18.4 7.69,24.55 A 0.66,0.66 0 0 1 6.85,23.69 Z m 4,4 -3,-3 -4.55,7.44 z"
     id="path1"
     style="fill:#ffffff;fill-opacity:1" />
  <path
     d="M 16,0 A 16,16 0 1 1 0,16 16,16 0 0 1 16,0 Z m -1,29.95 v -2.42 h 2 v 2.42 A 14,14 0 0 0 29.95,17 h -2.42 v -2 h 2.42 A 14,14 0 0 0 17,2.05 V 4.47 H 15 V 2.05 A 14,14 0 0 0 2.05,15 h 2.42 v 2 H 2.05 A 14,14 0 0 0 15,29.95 Z"
     id="path2"
     style="fill:#ffffff;fill-opacity:1" />
  <path
     d="M -2,-2 H 34 V 34 H -2 Z"
     fill="none"
     id="path3" />
</svg>
