<?xml version="1.0" encoding="UTF-8" standalone="no"?>
<svg
   viewBox="0 0 424 480.00299"
   version="1.1"
   id="svg1"
   sodipodi:docname="white_book_icon.svg"
   width="424"
   height="480.00299"
   inkscape:version="1.3.2 (091e20e, 2023-11-25)"
   xmlns:inkscape="http://www.inkscape.org/namespaces/inkscape"
   xmlns:sodipodi="http://sodipodi.sourceforge.net/DTD/sodipodi-0.dtd"
   xmlns="http://www.w3.org/2000/svg"
   xmlns:svg="http://www.w3.org/2000/svg">
  <defs
     id="defs1" />
  <sodipodi:namedview
     id="namedview1"
     pagecolor="#ffffff"
     bordercolor="#000000"
     borderopacity="0.25"
     inkscape:showpageshadow="2"
     inkscape:pageopacity="0.0"
     inkscape:pagecheckerboard="0"
     inkscape:deskcolor="#d1d1d1"
     inkscape:zoom="0.4609375"
     inkscape:cx="215.86441"
     inkscape:cy="240.81356"
     inkscape:window-width="1312"
     inkscape:window-height="449"
     inkscape:window-x="0"
     inkscape:window-y="37"
     inkscape:window-maximized="0"
     inkscape:current-layer="svg1" />
  <path
     fill="var(--ci-primary-color, currentColor)"
     d="M 61.667,384 H 424 V 0 H 60.667 A 60.863,60.863 0 0 0 0,60.667 V 414.25 h 0.011 c 0,0.151 -0.011,0.3 -0.011,0.453 0,35.4 27.782,65.3 60.667,65.3 H 424 V 448 H 60.667 C 45.664,448 32,432.129 32,414.7 32,398.06 45.585,384 61.667,384 Z M 320,32.333 V 205.149 L 271.6,162.659 224,204.9 V 32.333 Z M 192,32 v 216 h 31.641 L 271.716,205.341 320.305,248 H 352 V 32 h 40 V 352 H 96.08 L 96,32 Z M 60.667,32 H 64 l 0.076,320 H 61.663 A 59.793,59.793 0 0 0 32,359.883 V 60.917 A 28.825,28.825 0 0 1 60.667,32 Z"
     class="ci-primary"
     id="path1"
     style="fill:#ffffff;fill-opacity:1" />
</svg>
