<?xml version="1.0" encoding="UTF-8" standalone="no"?>
<svg
   height="40.558743"
   viewBox="0 0 40.945202 40.558743"
   width="40.945202"
   version="1.1"
   id="svg1"
   sodipodi:docname="white_profile_icon.svg"
   inkscape:version="1.3.2 (091e20e, 2023-11-25)"
   xmlns:inkscape="http://www.inkscape.org/namespaces/inkscape"
   xmlns:sodipodi="http://sodipodi.sourceforge.net/DTD/sodipodi-0.dtd"
   xmlns="http://www.w3.org/2000/svg"
   xmlns:svg="http://www.w3.org/2000/svg">
  <defs
     id="defs1" />
  <sodipodi:namedview
     id="namedview1"
     pagecolor="#ffffff"
     bordercolor="#000000"
     borderopacity="0.25"
     inkscape:showpageshadow="2"
     inkscape:pageopacity="0.0"
     inkscape:pagecheckerboard="0"
     inkscape:deskcolor="#d1d1d1"
     inkscape:zoom="4.2142857"
     inkscape:cx="-5.3389831"
     inkscape:cy="16.135593"
     inkscape:window-width="1312"
     inkscape:window-height="449"
     inkscape:window-x="0"
     inkscape:window-y="37"
     inkscape:window-maximized="0"
     inkscape:current-layer="svg1" />
  <path
     d="m 20.4843,20.301236 c 5.5781,0 10.125,-4.642752 10.125,-10.292974 C 30.6093,4.4018634 26.1093,0 20.4843,0 c -5.5547,0 -10.125,4.4895104 -10.125,10.052085 0.0234,5.628357 4.5703,10.249151 10.125,10.249151 z m 0,-3.306841 c -3.4219,0 -6.3516,-3.066046 -6.3516,-6.94231 0,-3.8105746 2.8829,-6.7451506 6.3516,-6.7451506 3.5157,0 6.3516,2.890752 6.3516,6.7013276 0,3.876357 -2.8828,6.986133 -6.3516,6.986133 z M 5.7656,40.558742 h 29.4375 c 3.8906,0 5.7421,-1.09493 5.7421,-3.503999 0,-5.737775 -7.7343,-14.037861 -20.4609,-14.037861 C 7.7578,23.016882 0,31.316968 0,37.054743 c 0,2.409069 1.8515,3.503999 5.7656,3.503999 z M 4.6405,37.251901 c -0.6093,0 -0.8671,-0.153335 -0.8671,-0.613246 0,-3.591553 5.9531,-10.314933 16.7109,-10.314933 10.7578,0 16.6875,6.72338 16.6875,10.314933 0,0.459911 -0.2344,0.613246 -0.8437,0.613246 z"
     id="path1"
     style="fill:#ffffff;fill-opacity:1;stroke-width:0.966644" />
</svg>
