<?xml version="1.0" encoding="UTF-8" standalone="no"?>
<svg
   height="32"
   preserveAspectRatio="xMidYMid"
   viewBox="0 0 32 32"
   width="32"
   version="1.1"
   id="svg3"
   sodipodi:docname="blue_compass_icon.svg"
   inkscape:version="1.3.2 (091e20e, 2023-11-25)"
   xmlns:inkscape="http://www.inkscape.org/namespaces/inkscape"
   xmlns:sodipodi="http://sodipodi.sourceforge.net/DTD/sodipodi-0.dtd"
   xmlns="http://www.w3.org/2000/svg"
   xmlns:svg="http://www.w3.org/2000/svg">
  <defs
     id="defs3" />
  <sodipodi:namedview
     id="namedview3"
     pagecolor="#ffffff"
     bordercolor="#000000"
     borderopacity="0.25"
     inkscape:showpageshadow="2"
     inkscape:pageopacity="0.0"
     inkscape:pagecheckerboard="0"
     inkscape:deskcolor="#d1d1d1"
     inkscape:zoom="6.5555556"
     inkscape:cx="15.940678"
     inkscape:cy="16.016949"
     inkscape:window-width="1312"
     inkscape:window-height="449"
     inkscape:window-x="0"
     inkscape:window-y="37"
     inkscape:window-maximized="0"
     inkscape:current-layer="svg3" />
  <path
     d="M 16,0 A 16,16 0 1 1 0,16 16,16 0 0 1 16,0 Z m 11.53,17 h 2.42 c 0,-0.33 0.05,-0.66 0.05,-1 0,-0.34 0,-0.67 -0.05,-1 H 27.53 Z M 17,2.05 C 16.67,2.05 16.34,2 16,2 15.66,2 15.33,2 15,2.05 v 2.42 h 2 z m -2,27.9 c 0.33,0 0.66,0.05 1,0.05 0.34,0 0.67,0 1,-0.05 V 27.53 H 15 Z M 7,24.37 a 0.59,0.59 0 0 0 0.69,0.16 L 18.25,18.38 24.4,7.82 C 24.65,7.35 24.01,6.72 23.54,6.98 L 13.17,13.31 6.84,23.68 A 0.59,0.59 0 0 0 7,24.37 Z M 4.47,17 V 15 H 2.05 c 0,0.33 -0.05,0.66 -0.05,1 0,0.34 0,0.67 0.05,1 z"
     id="path1"
     style="fill:#38b6ff;fill-opacity:1" />
  <path
     d="M 17.23,17.35 9.65,21.77 14.2,14.33 Z"
     id="path2"
     style="fill:#38b6ff;fill-opacity:1" />
  <path
     d="M -2,-2 H 34 V 34 H -2 Z"
     fill="none"
     id="path3" />
</svg>
