<?xml version="1.0" encoding="UTF-8" standalone="no"?>
<svg
   height="32"
   preserveAspectRatio="xMidYMid"
   viewBox="0 0 31 32"
   width="31"
   version="1.1"
   id="svg1"
   sodipodi:docname="white_bar_graph_icon.svg"
   inkscape:version="1.3.2 (091e20e, 2023-11-25)"
   xmlns:inkscape="http://www.inkscape.org/namespaces/inkscape"
   xmlns:sodipodi="http://sodipodi.sourceforge.net/DTD/sodipodi-0.dtd"
   xmlns="http://www.w3.org/2000/svg"
   xmlns:svg="http://www.w3.org/2000/svg">
  <defs
     id="defs1" />
  <sodipodi:namedview
     id="namedview1"
     pagecolor="#ffffff"
     bordercolor="#000000"
     borderopacity="0.25"
     inkscape:showpageshadow="2"
     inkscape:pageopacity="0.0"
     inkscape:pagecheckerboard="0"
     inkscape:deskcolor="#d1d1d1"
     inkscape:zoom="7.375"
     inkscape:cx="15.525424"
     inkscape:cy="16"
     inkscape:window-width="1312"
     inkscape:window-height="449"
     inkscape:window-x="0"
     inkscape:window-y="37"
     inkscape:window-maximized="0"
     inkscape:current-layer="svg1" />
  <path
     d="m30 32h-7c-.553 0-1-.448-1-1v-30c0-.552.447-1 1-1h7c.553 0 1 .448 1 1v30c0 .552-.447 1-1 1zm-1-30h-5v28h5zm-10 30h-7c-.552 0-1-.448-1-1v-14c0-.552.448-1 1-1h7c.553 0 1 .448 1 1v14c0 .552-.447 1-1 1zm-1-14h-5v12h5zm-10 14h-7c-.552 0-1-.448-1-1v-20c0-.552.448-1 1-1h7c.552 0 1 .448 1 1v20c0 .552-.448 1-1 1zm-1-20h-5v18h5z"
     id="path1"
     style="fill:#ffffff;fill-opacity:1" />
</svg>
